<svg width="509" height="71" fill="none"
  xmlns="http://www.w3.org/2000/svg">
  <path d="M6.267 51.5V9.33H14V26.49h27.645V9.33h7.732V51.5h-7.732V34.28H14V51.5H6.267zm63.409 12.593v-7.731h19.153c1.054 0 1.64-.079 1.757-.235.156-.117.234-.722.234-1.815V51.5H72.077c-2.225 0-4.139-.78-5.74-2.343-1.562-1.6-2.343-3.514-2.343-5.74V17.646h7.673v24.131c0 1.094.059 1.719.176 1.875.156.117.781.175 1.874.175H88.83c1.054 0 1.64-.058 1.757-.175.156-.156.234-.781.234-1.875V17.646h7.673V56.01c0 2.226-.78 4.12-2.343 5.682-1.562 1.6-3.456 2.401-5.681 2.401H69.676zm43.503.879V17.529h26.416c2.225 0 4.119.8 5.681 2.401 1.601 1.562 2.401 3.456 2.401 5.682v17.805c0 2.226-.8 4.14-2.401 5.74-1.562 1.562-3.456 2.343-5.681 2.343h-18.743v13.472h-7.673zm9.723-21.145h15.053c1.093 0 1.698-.058 1.815-.175.156-.156.235-.781.235-1.875V27.252c0-1.093-.079-1.699-.235-1.816-.117-.156-.722-.234-1.815-.234h-15.053c-1.094 0-1.719.078-1.875.234-.117.117-.175.723-.175 1.816v14.525c0 1.094.058 1.719.175 1.875.156.117.781.175 1.875.175zm45.865 7.673c-2.226 0-4.139-.78-5.74-2.343-1.562-1.6-2.343-3.514-2.343-5.74V25.612c0-2.226.781-4.12 2.343-5.682 1.601-1.6 3.514-2.401 5.74-2.401H187.1c2.225 0 4.119.8 5.681 2.401 1.601 1.562 2.402 3.456 2.402 5.682V38.38h-26.826v3.397c0 1.094.058 1.719.176 1.875.156.117.78.175 1.874.175h24.776V51.5h-26.416zm-.41-20.031h19.153v-4.217c0-1.093-.078-1.699-.235-1.816-.117-.156-.722-.234-1.815-.234h-15.053c-1.094 0-1.718.078-1.874.234-.118.117-.176.723-.176 1.816v4.217zM218.458 51.5c-2.226 0-4.139-.8-5.74-2.401-1.601-1.601-2.402-3.514-2.402-5.74V17.47c0-2.225.801-4.139 2.402-5.74 1.601-1.6 3.514-2.401 5.74-2.401h33.913v7.79h-32.273c-1.094 0-1.718.078-1.875.234-.117.117-.175.723-.175 1.816V41.66c0 1.094.058 1.719.175 1.875.157.117.781.175 1.875.175h32.273v7.79h-33.913zm48.571 0V25.612c0-2.226.781-4.12 2.343-5.682 1.601-1.6 3.514-2.401 5.74-2.401h18.861v7.673h-17.221c-1.093 0-1.718.078-1.874.234-.118.117-.176.723-.176 1.816V51.5h-7.673zm48.27 0c-2.226 0-4.138-.78-5.74-2.343-1.561-1.6-2.343-3.514-2.343-5.74V30.65h26.826v-3.397c0-1.093-.076-1.699-.235-1.816-.117-.156-.72-.234-1.815-.234h-24.776v-7.673h26.416c2.225 0 4.12.8 5.681 2.401 1.602 1.562 2.402 3.456 2.402 5.682V51.5h-26.416zm1.64-7.673h17.103V37.56h-19.153v4.217c0 1.094.058 1.719.176 1.875.158.117.782.175 1.874.175zm39.79 7.673V14.483c0-2.226.782-4.12 2.343-5.681 1.602-1.601 3.515-2.402 5.74-2.402h12.827v7.732h-11.187c-1.092 0-1.719.078-1.874.234-.117.117-.176.703-.176 1.757v1.406h13.237v7.673h-13.237V51.5h-7.673zm43.352 0c-2.226 0-4.138-.78-5.74-2.343-1.561-1.6-2.343-3.514-2.343-5.74V7.103h7.673V17.53h13.237v7.673h-13.237v16.575c0 1.094.059 1.719.176 1.875.155.117.782.175 1.874.175h11.187V51.5h-12.827zm34.352 0c-2.226 0-4.141-.78-5.74-2.343-1.564-1.6-2.343-3.514-2.343-5.74V25.612c0-2.226.779-4.12 2.343-5.682 1.599-1.6 3.514-2.401 5.74-2.401h18.333c2.226 0 4.118.8 5.681 2.401 1.599 1.562 2.402 3.456 2.402 5.682V38.38h-26.826v3.397c0 1.094.059 1.719.176 1.875.155.117.779.175 1.874.175h24.776V51.5h-26.416zm-.41-20.031h19.153v-4.217c0-1.093-.079-1.699-.237-1.816-.114-.156-.721-.234-1.813-.234h-15.053c-1.095 0-1.719.078-1.874.234-.117.117-.176.723-.176 1.816v4.217zM475.404 51.5V25.612c0-2.226.782-4.12 2.343-5.682 1.602-1.6 3.514-2.401 5.74-2.401h18.86v7.673h-17.22c-1.093 0-1.719.078-1.875.234-.117.117-.175.723-.175 1.816V51.5h-7.673z" fill="#fff"/>
  <path d="M6.267 51.5H.41v5.857h5.857V51.5zm0-42.171V3.472H.41v5.857h5.857zm7.732 0h5.857V3.472h-5.857v5.857zm0 17.161H8.14v5.857H14V26.49zm27.645 0v5.857h5.858V26.49h-5.858zm0-17.161V3.472h-5.857v5.857h5.857zm7.732 0h5.857V3.472h-5.857v5.857zm0 42.171v5.857h5.857V51.5h-5.857zm-7.732 0h-5.857v5.857h5.857V51.5zm0-17.22h5.858v-5.857h-5.858v5.857zM14 34.28v-5.857H8.14v5.857H14zm0 17.22v5.857h5.857V51.5h-5.857zm-1.875 0V9.33H.41V51.5h11.714zM6.267 15.186H14V3.472H6.267v11.714zm1.874-5.857V26.49h11.715V9.33H8.14zM14 32.347h27.645V20.633H14v11.714zM47.5 26.49V9.33H35.787V26.49h11.715zm-5.857-11.304h7.732V3.472h-7.732v11.714zm1.875-5.857V51.5h11.714V9.33H43.519zm5.857 36.314h-7.732v11.714h7.732V45.643zM47.502 51.5V34.28H35.787V51.5h11.715zm-5.858-23.077H14v11.714h27.645V28.423zM8.141 34.28V51.5h11.715V34.28H8.14zM14 45.643H6.267v11.714H14V45.643zm55.677 18.45h-5.857v5.857h5.857v-5.857zm0-7.731v-5.858h-5.857v5.858h5.857zm20.91-.235l-3.515-4.685-.669.502-.502.67 4.686 3.513zm.234-4.627h5.857v-5.857H90.82V51.5zm-24.483-2.343l-4.192 4.09.05.052.052.05 4.09-4.192zm-2.343-31.511v-5.857h-5.857v5.857h5.857zm7.673 0h5.857v-5.857h-5.857v5.857zm.176 26.006l-4.686 3.514.502.67.67.501 3.514-4.685zm18.743 0l4.141 4.141-4.141-4.141zm.234-26.006v-5.857h-5.857v5.857h5.857zm7.673 0h5.857v-5.857h-5.857v5.857zM96.15 61.692l-4.142-4.142-.025.026-.025.026 4.192 4.09zm-20.617 2.401v-7.731H63.819v7.731h11.714zm-5.857-1.874h19.153V50.504H69.676V62.22zm19.153 0c.619 0 1.33-.02 2.004-.11a7.79 7.79 0 001.43-.323c.354-.118 1.865-.62 3.008-2.144L85.9 52.613a5.643 5.643 0 011.669-1.49c.419-.244.779-.38.989-.45.406-.135.695-.171.727-.176.088-.011-.021.008-.456.008v11.714zm5.271-1.406c1.562-1.171 2.054-2.733 2.16-3.058.187-.577.269-1.097.31-1.42.087-.672.107-1.389.107-2.023H84.963c0 .459-.02.591-.01.524.002-.02.035-.298.164-.695.066-.204.197-.565.438-.986.228-.4.69-1.094 1.516-1.713l7.029 9.371zm2.577-6.501V51.5H84.963v2.812h11.714zm-5.857-8.669H72.077v11.714H90.82V45.643zm-18.743 0c-.689 0-1.137-.178-1.65-.678l-8.18 8.385c2.689 2.623 6.068 4.007 9.83 4.007V45.643zm-1.547-.576c-.5-.513-.679-.96-.679-1.65H58.137c0 3.763 1.385 7.142 4.008 9.83l8.385-8.18zm-.679-1.65V17.646H58.137v25.771h11.714zm-5.857-19.914h7.673V11.79h-7.673v11.714zm1.816-5.857v24.131h11.714V17.646H65.81zm0 24.131c0 .617.015 1.256.07 1.836.026.282.074.682.172 1.12.052.232.287 1.343 1.105 2.433l9.372-7.029c.44.588.66 1.121.757 1.378.109.29.166.522.194.646.03.134.046.233.053.281l.008.058a.722.722 0 010 .005l-.002-.041a16.376 16.376 0 01-.015-.686H65.81zm2.519 6.56c1.09.818 2.2 1.053 2.433 1.106.438.098.838.146 1.12.172.58.054 1.218.07 1.835.07V37.97a15.525 15.525 0 01-.686-.014l-.042-.003a.184.184 0 01.005 0l.058.008c.048.008.147.023.281.053.125.028.357.086.647.195.256.096.79.316 1.377.757l-7.028 9.371zm5.388 1.347H88.83V37.97H73.717v11.715zm15.112 0c.595 0 1.232-.014 1.812-.072.278-.028.71-.081 1.19-.201.161-.04 1.638-.36 2.896-1.618l-8.283-8.283a5.654 5.654 0 011.728-1.183c.365-.16.664-.242.818-.28.169-.043.297-.065.362-.075.07-.011.114-.016.124-.017.015-.001-.029.004-.154.008-.119.004-.281.007-.493.007v11.715zm5.898-1.89A6.322 6.322 0 0096.3 45.13c.158-.53.234-1.012.274-1.338.084-.665.104-1.374.104-2.015H84.963c0 .453-.019.604-.013.562.001-.013.028-.24.128-.575.052-.174.15-.465.324-.812a5.55 5.55 0 011.042-1.442l8.283 8.283zm1.95-6.017V17.646H84.963v24.131h11.714zM90.82 23.503h7.673V11.79H90.82v11.714zm1.816-5.857V56.01h11.714V17.646H92.636zm0 38.364c0 .686-.173 1.086-.628 1.54l8.284 8.283c2.669-2.67 4.058-6.057 4.058-9.823H92.636zm-.678 1.592c-.466.477-.851.634-1.49.634V69.95c3.814 0 7.216-1.444 9.875-4.168l-8.385-8.18zm-1.49.634H69.677V69.95h20.793V58.236zm22.711 6.736h-5.857v5.857h5.857v-5.857zm0-47.443v-5.857h-5.857v5.857h5.857zm32.097 2.401l-4.193 4.09.051.052.052.05 4.09-4.192zm0 29.227l4.142 4.142-4.142-4.142zM120.852 51.5v-5.857h-5.858V51.5h5.858zm0 13.472v5.857h5.857v-5.857h-5.857zm18.918-21.32l4.142 4.141-4.142-4.141zm0-18.216l-4.686 3.514.502.67.67.502 3.514-4.686zm-18.743 0l4.142 4.142-4.142-4.142zm0 18.216l-4.685 3.514.502.67.669.501 3.514-4.685zm-1.991 21.32V17.529h-11.714v47.443h11.714zm-5.857-41.586h26.415V11.672h-26.415v11.714zm26.415 0c.639 0 1.024.157 1.489.634l8.385-8.18c-2.658-2.724-6.061-4.168-9.874-4.168v11.714zm1.592.737c.477.465.634.85.634 1.489h11.714c0-3.813-1.443-7.216-4.168-9.874l-8.18 8.385zm.634 1.489v17.805h11.714V25.612H141.82zm0 17.805c0 .643-.162 1.075-.686 1.599l8.284 8.283c2.678-2.678 4.116-6.073 4.116-9.882H141.82zm-.686 1.599c-.454.454-.854.627-1.54.627v11.714c3.766 0 7.154-1.388 9.824-4.058l-8.284-8.283zm-1.54.627h-18.742v11.714h18.742V45.643zm-24.6 5.857v13.472h11.715V51.5h-11.715zm5.858 7.614h-7.673V70.83h7.673V59.115zm2.05-9.43h15.052V37.97h-15.052v11.715zm15.052 0c.613 0 1.257-.014 1.839-.07a8.52 8.52 0 001.182-.194c.131-.032 1.652-.342 2.937-1.627l-8.283-8.283a5.639 5.639 0 011.767-1.2c.365-.157.662-.236.811-.273.164-.04.288-.06.348-.07.065-.01.104-.013.109-.014.006 0-.048.005-.183.01-.129.004-.302.007-.527.007v11.715zm5.958-1.89a6.314 6.314 0 001.571-2.664c.159-.53.234-1.012.275-1.338.083-.665.104-1.374.104-2.015h-11.715c0 .453-.018.604-.013.562.002-.013.028-.24.129-.575a5.1 5.1 0 01.323-.812c.165-.33.483-.882 1.043-1.442l8.283 8.283zm1.95-6.017V27.252h-11.715v14.525h11.715zm0-14.525c0-.635-.02-1.351-.107-2.024a7.935 7.935 0 00-.311-1.42c-.105-.325-.598-1.886-2.16-3.058l-7.028 9.372a5.64 5.64 0 01-1.516-1.713 5.324 5.324 0 01-.439-.987 3.907 3.907 0 01-.164-.695c-.009-.067.01.066.01.525h11.715zm-1.406-5.33c-1.172-1.562-2.733-2.055-3.058-2.16a7.892 7.892 0 00-1.42-.31 16.201 16.201 0 00-2.024-.108V31.06c.459 0 .592.019.525.01-.02-.002-.298-.035-.695-.164a5.25 5.25 0 01-.987-.439 5.658 5.658 0 01-1.713-1.516l9.372-7.028zm-6.502-2.578h-15.052V31.06h15.052V19.344zm-15.052 0c-.641 0-1.35.021-2.016.104a8.27 8.27 0 00-1.337.275 6.326 6.326 0 00-2.663 1.571l8.283 8.284c-.56.56-1.112.877-1.442 1.042a5.091 5.091 0 01-.812.324c-.335.1-.562.127-.575.128-.042.005.109-.013.562-.013V19.344zm-6.016 1.95c-1.285 1.285-1.595 2.806-1.627 2.937a8.553 8.553 0 00-.193 1.183 19.407 19.407 0 00-.072 1.838h11.715c0-.224.003-.398.007-.527.005-.135.01-.19.009-.183a3.95 3.95 0 01-.083.458 5.316 5.316 0 01-.272.81 5.648 5.648 0 01-1.201 1.768l-8.283-8.284zm-1.892 5.958v14.525h11.715V27.252h-11.715zm0 14.525c0 .617.016 1.256.07 1.836.027.282.074.682.172 1.12.053.232.288 1.343 1.106 2.433l9.371-7.029c.441.588.661 1.121.757 1.378a4.905 4.905 0 01.248.927l.007.058.002.02-.001-.015a.915.915 0 01-.003-.041l-.007-.154a17.96 17.96 0 01-.007-.533h-11.715zm2.519 6.56c1.09.818 2.201 1.053 2.434 1.106.437.098.837.146 1.119.172.58.054 1.219.07 1.836.07V37.97a15.537 15.537 0 01-.728-.017.184.184 0 01.005 0l.058.008c.048.008.147.023.281.053.124.028.356.086.647.195.256.096.789.316 1.377.757l-7.029 9.371zm45.514.82l-4.193 4.09.051.052.052.05 4.09-4.192zm0-29.227l-4.142-4.141 4.142 4.141zm29.754 0l-4.192 4.09.05.052.052.05 4.09-4.192zm2.402 18.45v5.857h5.857V38.38h-5.857zm-26.826 0v-5.857H162.5v5.857h5.857zm.176 5.272l-4.686 3.514.502.67.669.501 3.515-4.685zm26.65.175h5.857V37.97h-5.857v5.857zm0 7.673v5.857h5.857V51.5h-5.857zM168.357 31.47H162.5v5.857h5.857v-5.857zm19.153 0v5.857h5.857v-5.857h-5.857zm-.235-6.033l-4.686 3.514.503.67.669.502 3.514-4.686zm-18.742 0l4.141 4.142-4.141-4.142zm.234 20.207c-.689 0-1.137-.178-1.65-.678l-8.18 8.385c2.689 2.623 6.067 4.007 9.83 4.007V45.643zm-1.548-.576c-.5-.513-.678-.96-.678-1.65h-11.714c0 3.763 1.384 7.142 4.007 9.83l8.385-8.18zm-.678-1.65V25.612h-11.714v17.805h11.714zm0-17.805c0-.686.173-1.086.627-1.54l-8.283-8.283c-2.67 2.67-4.058 6.057-4.058 9.823h11.714zm.627-1.54c.524-.524.956-.686 1.599-.686V11.672c-3.809 0-7.204 1.438-9.882 4.117l8.283 8.283zm1.599-.686H187.1V11.672h-18.333v11.714zm18.333 0c.638 0 1.023.157 1.489.634l8.384-8.18c-2.658-2.724-6.061-4.168-9.873-4.168v11.714zm1.591.737c.477.465.634.85.634 1.489h11.715c0-3.813-1.444-7.216-4.169-9.874l-8.18 8.385zm.634 1.489V38.38h11.715V25.612h-11.715zm5.858 6.911h-26.826v11.714h26.826V32.523zM162.5 38.38v3.397h11.714V38.38H162.5zm0 3.397c0 .617.015 1.256.069 1.836.026.282.074.682.172 1.12.053.232.288 1.343 1.106 2.433l9.371-7.029c.441.588.661 1.121.758 1.378.108.29.166.522.194.646.03.134.046.233.053.281l.007.058.002.02-.001-.015-.003-.041-.007-.154a17.96 17.96 0 01-.007-.533H162.5zm2.518 6.56c1.09.818 2.201 1.053 2.434 1.106.437.098.837.146 1.12.172.579.054 1.218.07 1.835.07V37.97a15.537 15.537 0 01-.728-.017.693.693 0 00.005 0l.058.008c.048.008.147.023.281.053.125.028.357.086.647.195.256.096.789.316 1.377.757l-7.029 9.371zm5.389 1.347h24.776V37.97h-24.776v11.715zm18.918-5.857V51.5h11.715v-7.673h-11.715zm5.858 1.816h-26.416v11.714h26.416V45.643zm-26.826-8.317h19.153V25.612h-19.153v11.714zm25.01-5.857v-4.217h-11.714v4.217h11.714zm0-4.217c0-.635-.02-1.351-.107-2.024a7.935 7.935 0 00-.311-1.42c-.105-.325-.597-1.886-2.159-3.058l-7.029 9.372a5.64 5.64 0 01-1.516-1.713 5.324 5.324 0 01-.439-.987c-.128-.396-.161-.675-.164-.695-.009-.067.011.066.011.525h11.714zm-1.406-5.33c-1.171-1.562-2.733-2.055-3.058-2.16a7.874 7.874 0 00-1.42-.31 16.185 16.185 0 00-2.023-.108V31.06c.458 0 .591.019.524.01-.02-.002-.298-.035-.695-.164a5.22 5.22 0 01-.986-.439 5.647 5.647 0 01-1.714-1.516l9.372-7.028zm-6.501-2.578h-15.053V31.06h15.053V19.344zm-15.053 0c-.641 0-1.349.021-2.015.104a8.227 8.227 0 00-1.337.275 6.322 6.322 0 00-2.664 1.571l8.283 8.284c-.56.56-1.112.877-1.442 1.042a5.09 5.09 0 01-.811.324c-.336.1-.563.127-.576.128-.041.005.109-.013.562-.013V19.344zm-6.016 1.95c-1.285 1.285-1.595 2.806-1.627 2.937a8.553 8.553 0 00-.193 1.183 19.411 19.411 0 00-.071 1.838h11.714c0-.224.003-.398.007-.527a2.8 2.8 0 01.01-.183c-.001.005-.005.044-.015.109a3.95 3.95 0 01-.069.349 5.192 5.192 0 01-.272.81 5.645 5.645 0 01-1.201 1.768l-8.283-8.284zm-1.891 5.958v4.217h11.714v-4.217H162.5zm50.218 21.847l-4.142 4.141 4.142-4.141zm0-37.369l-4.142-4.141 4.142 4.141zm39.653-2.401h5.857V3.472h-5.857v5.857zm0 7.79v5.857h5.857v-5.857h-5.857zm-34.148.234l4.142 4.142-4.142-4.142zm0 26.181l-4.685 3.515.502.67.669.501 3.514-4.685zm34.148.176h5.857v-5.857h-5.857v5.857zm0 7.79v5.857h5.857V51.5h-5.857zm-33.913-5.857c-.643 0-1.075-.162-1.599-.686l-8.283 8.283c2.678 2.679 6.073 4.117 9.882 4.117V45.643zm-1.599-.686c-.523-.524-.686-.956-.686-1.598h-11.714c0 3.809 1.439 7.203 4.117 9.881l8.283-8.283zm-.686-1.598V17.47h-11.714V43.36h11.714zm0-25.889c0-.642.163-1.074.686-1.598l-8.283-8.283c-2.678 2.678-4.117 6.072-4.117 9.881h11.714zm.686-1.598c.524-.524.956-.686 1.599-.686V3.472c-3.809 0-7.204 1.438-9.882 4.117l8.283 8.283zm1.599-.686h33.913V3.472h-33.913v11.714zm28.055-5.857v7.79h11.715v-7.79h-11.715zm5.858 1.933h-32.273v11.714h32.273V11.262zm-32.273 0c-.641 0-1.349.02-2.015.104-.326.04-.807.115-1.338.274a6.322 6.322 0 00-2.663 1.571l8.283 8.284c-.56.56-1.112.877-1.442 1.042a5.111 5.111 0 01-.812.324c-.335.1-.562.127-.575.128-.042.005.109-.013.562-.013V11.262zm-6.016 1.95c-1.285 1.284-1.595 2.806-1.627 2.936a8.55 8.55 0 00-.193 1.183 19.415 19.415 0 00-.071 1.838h11.714c0-.224.003-.398.007-.527.005-.135.01-.189.01-.183l-.015.11c-.009.06-.029.183-.069.348a5.2 5.2 0 01-.272.81 5.648 5.648 0 01-1.201 1.768l-8.283-8.284zm-1.891 5.957V41.66h11.714V19.17h-11.714zm0 22.491c0 .617.015 1.256.069 1.836.027.282.074.682.172 1.12.053.232.288 1.343 1.106 2.433l9.371-7.029c.441.588.661 1.121.757 1.377a4.905 4.905 0 01.248.928l.007.058a.13.13 0 01.002.019l-.001-.014a.926.926 0 01-.003-.042l-.007-.153a17.949 17.949 0 01-.007-.533h-11.714zm2.518 6.56c1.09.818 2.201 1.053 2.434 1.106.437.098.837.145 1.119.172.58.054 1.219.07 1.836.07V37.852a15.58 15.58 0 01-.728-.017l-.014-.001.019.002.058.007c.048.007.147.023.281.053.125.028.356.086.647.195.256.096.789.316 1.377.757l-7.029 9.371zm5.389 1.347h32.273V37.853h-32.273v11.714zm26.415-5.857v7.79h11.715v-7.79h-11.715zm5.858 1.933h-33.913v11.714h33.913V45.643zm14.658 5.857h-5.857v5.857h5.857V51.5zm2.343-31.57l-4.142-4.141 4.142 4.141zm24.601-2.401h5.857v-5.857h-5.857v5.857zm0 7.673v5.857h5.857v-5.857h-5.857zm-19.095.234l4.141 4.142-4.141-4.142zm-.176 26.064v5.857h5.857V51.5h-5.857zm-1.816 0V25.612h-11.714V51.5h11.714zm0-25.888c0-.686.173-1.086.627-1.54l-8.283-8.283c-2.669 2.67-4.058 6.057-4.058 9.823h11.714zm.627-1.54c.524-.524.956-.686 1.599-.686V11.672c-3.809 0-7.204 1.438-9.882 4.117l8.283 8.283zm1.599-.686h18.861V11.672h-18.861v11.714zm13.003-5.857v7.673h11.715v-7.673h-11.715zm5.858 1.816h-17.221v11.714h17.221V19.344zm-17.221 0c-.641 0-1.349.02-2.015.103a8.257 8.257 0 00-1.338.275 6.326 6.326 0 00-2.663 1.571l8.283 8.284c-.56.56-1.112.877-1.441 1.042a5.129 5.129 0 01-.812.324c-.335.1-.563.127-.576.128-.041.005.109-.013.562-.013V19.344zm-6.016 1.95c-1.285 1.284-1.595 2.805-1.627 2.936a8.553 8.553 0 00-.193 1.183 19.75 19.75 0 00-.071 1.838h11.714a14.094 14.094 0 01.017-.71c-.001.005-.004.044-.014.109-.01.06-.03.184-.07.349a5.192 5.192 0 01-.272.81 5.645 5.645 0 01-1.201 1.768l-8.283-8.284zm-1.891 5.957V51.5h11.714V27.252h-11.714zm5.857 18.391h-7.673v11.714h7.673V45.643zm34.857 3.514l-4.191 4.09.05.052.053.05 4.088-4.192zm-2.343-18.508v-5.857h-5.857v5.857h5.857zm26.826 0v5.857h5.857v-5.857h-5.857zm-.235-5.213l-4.685 3.514.503.67.668.502 3.514-4.686zm-26.591-.234h-5.857v5.857h5.857v-5.857zm0-7.673v-5.857h-5.857v5.857h5.857zm32.097 2.401l-4.191 4.09.05.052.053.05 4.088-4.192zm2.402 31.57v5.857h5.857V51.5h-5.857zm-7.673-7.673v5.858h5.857v-5.858h-5.857zm0-6.267h5.857v-5.857h-5.857v5.857zm-19.153 0v-5.857h-5.857v5.857h5.857zm.176 6.092l-4.686 3.514.504.67.667.501 3.515-4.685zm.234 1.991c-.688 0-1.136-.178-1.649-.678l-8.179 8.385c2.688 2.623 6.068 4.007 9.828 4.007V45.643zm-1.546-.576c-.501-.513-.68-.96-.68-1.65h-11.714c0 3.763 1.385 7.142 4.009 9.83l8.385-8.18zm-.68-1.65V30.65h-11.714v12.768h11.714zm-5.857-6.911h26.826V24.792h-26.826v11.714zm32.683-5.857v-3.397h-11.714v3.397h11.714zm0-3.397c0-.635-.021-1.351-.106-2.024a7.828 7.828 0 00-.31-1.42c-.105-.325-.597-1.886-2.161-3.058l-7.029 9.372a5.598 5.598 0 01-1.514-1.713 5 5 0 01-.439-.987c-.129-.396-.161-.675-.164-.695-.009-.067.009.066.009.525h11.714zm-1.406-5.33c-1.171-1.562-2.732-2.055-3.057-2.16a7.9 7.9 0 00-1.421-.31 16.156 16.156 0 00-2.023-.108V31.06c.459 0 .591.019.524.01-.018-.002-.299-.035-.694-.164a5.25 5.25 0 01-.987-.439 5.681 5.681 0 01-1.713-1.516l9.371-7.028zm-6.501-2.578h-24.776V31.06h24.776V19.344zm-18.919 5.858v-7.673h-11.714v7.673h11.714zm-5.857-1.816h26.416V11.672h-26.416v11.714zm26.416 0c.638 0 1.025.157 1.49.634l8.385-8.18c-2.659-2.724-6.062-4.168-9.875-4.168v11.714zm1.593.737c.477.465.632.85.632 1.489h11.715c0-3.813-1.444-7.216-4.168-9.874l-8.179 8.385zm.632 1.489V51.5h11.715V25.612h-11.715zm5.858 20.031h-26.416v11.714h26.416V45.643zm-24.776 4.041h17.103V37.97h-17.103v11.715zm22.96-5.857V37.56h-11.714v6.267h11.714zm-5.857-12.124h-19.153v11.714h19.153V31.703zm-25.01 5.857v4.217h11.714V37.56h-11.714zm0 4.217c0 .617.014 1.256.07 1.836.026.282.073.682.173 1.12.052.232.287 1.343 1.104 2.433l9.371-7.029c.442.588.662 1.121.759 1.378a4.665 4.665 0 01.246.927c.006.027.006.046.009.058a.07.07 0 000 .005c0-.01 0-.023-.003-.041-.003-.038-.003-.088-.006-.154a12.38 12.38 0 01-.009-.533h-11.714zm2.518 6.56c1.093.818 2.203 1.053 2.434 1.106.439.098.837.146 1.122.172.576.054 1.218.07 1.833.07V37.97a15.665 15.665 0 01-.685-.014l-.041-.003-.015-.001.017.002.059.007c.05.008.146.023.281.053.126.028.357.086.647.195.258.096.791.316 1.377.757l-7.029 9.371zm45.179 3.163h-5.857v5.857h5.857V51.5zm2.343-42.698l-4.141-4.142 4.141 4.142zM377.639 6.4h5.857V.543h-5.857V6.4zm0 7.732v5.857h5.857v-5.857h-5.857zm-13.061.234l4.141 4.142-4.141-4.142zm-.176 3.163h-5.857v5.857h5.857v-5.857zm13.237 0h5.857v-5.857h-5.857v5.857zm0 7.673v5.857h5.857v-5.857h-5.857zm-13.237 0v-5.858h-5.857v5.858h5.857zm0 26.298v5.857h5.857V51.5h-5.857zm-1.816 0V14.483h-11.714V51.5h11.714zm0-37.017c0-.686.173-1.086.627-1.54l-8.282-8.283c-2.671 2.67-4.059 6.057-4.059 9.823h11.714zm.627-1.54c.524-.524.958-.686 1.599-.686V.543c-3.81 0-7.204 1.439-9.881 4.117l8.282 8.283zm1.599-.686h12.827V.543h-12.827v11.714zm6.97-5.857v7.732h11.714V6.4h-11.714zm5.857 1.875h-11.187v11.714h11.187V8.275zm-11.187 0c-.641 0-1.35.02-2.015.103-.325.041-.808.116-1.338.275a6.32 6.32 0 00-2.662 1.571l8.282 8.284a5.56 5.56 0 01-1.441 1.042 5.165 5.165 0 01-.811.324c-.337.1-.562.127-.577.128-.041.005.108-.013.562-.013V8.275zm-6.015 1.95c-1.259 1.258-1.579 2.735-1.62 2.896-.117.48-.172.912-.199 1.19-.058.58-.073 1.216-.073 1.812h11.714c0-.212.003-.375.006-.494.006-.124.012-.168.009-.153a3.66 3.66 0 01-.091.486c-.038.154-.12.452-.281.817a5.613 5.613 0 01-1.183 1.729l-8.282-8.284zm-1.892 5.898v1.406h11.714v-1.406h-11.714zm5.857 7.263h13.237V11.672h-13.237v11.714zm7.38-5.857v7.673h11.714v-7.673h-11.714zm5.857 1.816h-13.237v11.714h13.237V19.344zm-19.094 5.857V51.5h11.714V25.202h-11.714zm5.857 20.441h-7.673v11.714h7.673V45.643zm29.939 3.514l-4.194 4.09.053.052.05.05 4.091-4.192zm-2.343-42.054V1.246h-5.857v5.857h5.857zm7.673 0h5.857V1.246h-5.857v5.857zm0 10.426h-5.857v5.857h5.857v-5.857zm13.237 0h5.857v-5.857h-5.857v5.857zm0 7.673v5.857h5.857v-5.857h-5.857zm-13.237 0v-5.858h-5.857v5.858h5.857zm.176 18.45l-4.686 3.514.501.67.67.501 3.515-4.685zm13.061.175h5.857V37.97h-5.857v5.857zm0 7.673v5.857h5.857V51.5h-5.857zm-12.827-5.857c-.688 0-1.136-.178-1.649-.678l-8.182 8.385c2.688 2.623 6.068 4.007 9.831 4.007V45.643zm-1.546-.576c-.501-.513-.68-.96-.68-1.65h-11.714c0 3.763 1.385 7.142 4.006 9.83l8.388-8.18zm-.68-1.65V7.103h-11.714v36.314h11.714zm-5.857-30.457h7.673V1.246h-7.673V12.96zm1.816-5.857V17.53h11.714V7.103h-11.714zm5.857 16.283h13.237V11.672h-13.237v11.714zm7.38-5.857v7.673h11.714v-7.673h-11.714zm5.857 1.816h-13.237v11.714h13.237V19.344zm-19.094 5.857v16.575h11.714V25.202h-11.714zm0 16.575c0 .617.014 1.256.07 1.836.026.282.073.682.17 1.12.053.232.29 1.343 1.107 2.433l9.371-7.029c.44.588.662 1.121.759 1.378.108.29.164.522.193.646a3.901 3.901 0 01.062.34V42.504c0-.01-.003-.023-.003-.041a12.38 12.38 0 01-.015-.686h-11.714zm2.518 6.56c1.09.818 2.2 1.053 2.434 1.106.436.098.838.146 1.119.172.58.054 1.218.07 1.836.07V37.97a15.665 15.665 0 01-.685-.014l-.044-.003-.012-.001.018.002.058.007c.047.008.147.023.281.053.123.028.358.086.648.195.254.096.787.316 1.376.757l-7.029 9.371zm5.389 1.347h11.187V37.97h-11.187v11.715zm5.33-5.857V51.5h11.714v-7.673h-11.714zm5.857 1.816h-12.827v11.714h12.827V45.643zm15.785 3.514l-4.194 4.09.05.052.053.05 4.091-4.192zm0-29.227l-4.144-4.141 4.144 4.141zm29.751 0l-4.19 4.09.049.052.053.05 4.088-4.192zm2.405 18.45v5.857h5.857V38.38h-5.857zm-26.829 0v-5.857h-5.857v5.857h5.857zm.176 5.272l-4.686 3.514.504.67.668.501 3.514-4.685zm26.653.175h5.857V37.97h-5.857v5.857zm0 7.673v5.857h5.857V51.5h-5.857zM434.02 31.47h-5.857v5.857h5.857v-5.857zm19.153 0v5.857h5.857v-5.857h-5.857zm-.231-6.033l-4.689 3.514.504.67.67.502 3.515-4.686zm-18.746 0l4.144 4.142-4.144-4.142zm.234 20.207c-.688 0-1.136-.178-1.649-.678l-8.179 8.385c2.688 2.623 6.068 4.007 9.828 4.007V45.643zm-1.546-.576c-.501-.513-.677-.96-.677-1.65h-11.714c0 3.763 1.382 7.142 4.006 9.83l8.385-8.18zm-.677-1.65V25.612h-11.714v17.805h11.714zm0-17.805c0-.686.173-1.086.627-1.54l-8.285-8.283c-2.668 2.67-4.056 6.057-4.056 9.823h11.714zm.627-1.54c.524-.524.955-.686 1.596-.686V11.672c-3.807 0-7.201 1.438-9.881 4.117l8.285 8.283zm1.596-.686h18.333V11.672H434.43v11.714zm18.333 0c.641 0 1.025.157 1.491.634l8.384-8.18c-2.659-2.724-6.062-4.168-9.875-4.168v11.714zm1.593.737c.478.465.636.85.636 1.489h11.714c0-3.813-1.447-7.216-4.17-9.874l-8.18 8.385zm.636 1.489V38.38h11.714V25.612h-11.714zm5.857 6.911H434.02v11.714h26.829V32.523zm-32.686 5.857v3.397h11.714V38.38h-11.714zm0 3.397c0 .617.018 1.256.07 1.836.027.282.074.682.173 1.12.053.232.287 1.343 1.104 2.433l9.375-7.029c.439.588.658 1.121.755 1.378a4.665 4.665 0 01.255.985c.003.013.003.02.003.02l-.003-.015c0-.01 0-.023-.003-.041 0-.038-.003-.088-.006-.154-.003-.134-.009-.309-.009-.533h-11.714zm2.519 6.56c1.092.818 2.202 1.053 2.433 1.106.44.098.838.146 1.122.172.58.054 1.218.07 1.833.07V37.97a15.383 15.383 0 01-.685-.014l-.041-.003-.015-.001.021.002.058.007c.047.008.147.023.281.053.123.028.355.086.645.195.257.096.79.316 1.376.757l-7.028 9.371zm5.388 1.347h24.779V37.97H436.07v11.715zm18.922-5.857V51.5h11.714v-7.673h-11.714zm5.857 1.816H434.43v11.714h26.419V45.643zm-26.829-8.317h19.153V25.612H434.02v11.714zm25.01-5.857v-4.217h-11.714v4.217h11.714zm0-4.217c0-.635-.017-1.351-.105-2.024a7.761 7.761 0 00-.311-1.42c-.105-.325-.597-1.886-2.158-3.058l-7.029 9.372a5.632 5.632 0 01-1.517-1.713 5.19 5.19 0 01-.439-.987c-.129-.396-.161-.675-.164-.695-.009-.067.009.066.009.525h11.714zm-1.403-5.33c-1.171-1.562-2.735-2.055-3.06-2.16a7.838 7.838 0 00-1.42-.31 16.172 16.172 0 00-2.024-.108V31.06c.46 0 .595.019.527.01-.02-.002-.299-.035-.697-.164a5.25 5.25 0 01-.987-.439 5.681 5.681 0 01-1.713-1.516l9.374-7.028zm-6.504-2.578H436.07V31.06h15.053V19.344zm-15.053 0c-.638 0-1.347.021-2.015.104a8.232 8.232 0 00-1.335.275 6.312 6.312 0 00-2.665 1.571l8.285 8.284c-.56.56-1.113.877-1.444 1.042a4.98 4.98 0 01-.811.324c-.334.1-.562.127-.574.128-.041.005.108-.013.559-.013V19.344zm-6.015 1.95c-1.283 1.285-1.593 2.806-1.625 2.937a8.144 8.144 0 00-.194 1.183 20.093 20.093 0 00-.073 1.838h11.714c0-.224.006-.398.009-.527l.009-.183a4.558 4.558 0 01-.082.458 5.545 5.545 0 01-.272.81 5.645 5.645 0 01-1.201 1.768l-8.285-8.284zm-1.892 5.958v4.217h11.714v-4.217h-11.714zM475.404 51.5h-5.857v5.857h5.857V51.5zm2.343-31.57l-4.141-4.141 4.141 4.141zm24.6-2.401h5.857v-5.857h-5.857v5.857zm0 7.673v5.857h5.857v-5.857h-5.857zm-19.095.234l4.141 4.142-4.141-4.142zm-.175 26.064v5.857h5.857V51.5h-5.857zm-1.816 0V25.612h-11.714V51.5h11.714zm0-25.888c0-.686.173-1.086.627-1.54l-8.282-8.283c-2.671 2.67-4.059 6.057-4.059 9.823h11.714zm.627-1.54c.524-.524.957-.686 1.599-.686V11.672c-3.81 0-7.205 1.438-9.881 4.117l8.282 8.283zm1.599-.686h18.86V11.672h-18.86v11.714zm13.003-5.857v7.673h11.714v-7.673H496.49zm5.857 1.816h-17.22v11.714h17.22V19.344zm-17.22 0c-.642 0-1.35.02-2.015.103a8.286 8.286 0 00-1.339.275 6.33 6.33 0 00-2.662 1.571l8.282 8.284a5.557 5.557 0 01-1.44 1.042 5.206 5.206 0 01-.812.324c-.336.1-.562.127-.577.128-.041.005.109-.013.563-.013V19.344zm-6.016 1.95c-1.285 1.284-1.596 2.805-1.628 2.936a8.553 8.553 0 00-.193 1.183c-.056.582-.07 1.226-.07 1.838h11.714a11.913 11.913 0 01.017-.71c-.003.005-.005.044-.014.109a4.882 4.882 0 01-.343 1.159 5.627 5.627 0 01-1.201 1.768l-8.282-8.284zm-1.891 5.957V51.5h11.714V27.252H477.22zm5.857 18.391h-7.673v11.714h7.673V45.643z" fill="url(#paint0_linear)"/>
  <path d="M3.339 48.572V6.4h7.731v17.162h27.646V6.4h7.731v42.172h-7.731v-17.22H11.07v17.22H3.34zm63.408 12.592v-7.73H85.9c1.054 0 1.64-.08 1.757-.235.157-.117.234-.723.234-1.816v-2.811H69.15c-2.226 0-4.14-.781-5.74-2.343-1.562-1.601-2.343-3.514-2.343-5.74V14.717h7.673V38.85c0 1.093.058 1.718.175 1.874.157.117.781.176 1.875.176H85.9c1.054 0 1.64-.059 1.757-.176.157-.156.234-.78.234-1.874V14.717h7.673v38.365c0 2.225-.78 4.12-2.342 5.681-1.562 1.601-3.456 2.401-5.682 2.401H66.747zm43.503.88V14.6h26.416c2.226 0 4.12.8 5.681 2.402 1.601 1.562 2.402 3.455 2.402 5.681V40.49c0 2.226-.801 4.139-2.402 5.74-1.561 1.562-3.455 2.343-5.681 2.343h-18.743v13.471h-7.673zm9.723-21.145h15.053c1.093 0 1.699-.059 1.816-.176.156-.156.234-.78.234-1.874V24.323c0-1.093-.078-1.698-.234-1.816-.117-.156-.723-.234-1.816-.234h-15.053c-1.093 0-1.718.078-1.874.234-.117.117-.176.723-.176 1.816V38.85c0 1.093.059 1.718.176 1.874.156.117.781.176 1.874.176zm45.865 7.673c-2.225 0-4.139-.781-5.74-2.343-1.562-1.601-2.343-3.514-2.343-5.74V22.683c0-2.226.781-4.12 2.343-5.681 1.601-1.601 3.515-2.402 5.74-2.402h18.333c2.226 0 4.119.8 5.682 2.402 1.6 1.562 2.401 3.455 2.401 5.681v12.769h-26.826v3.397c0 1.093.059 1.718.176 1.874.156.117.781.176 1.874.176h24.776v7.673h-26.416zm-.41-20.032h19.153v-4.217c0-1.093-.078-1.698-.234-1.816-.117-.156-.723-.234-1.816-.234h-15.053c-1.093 0-1.718.078-1.874.234-.117.117-.176.723-.176 1.816v4.217zm50.101 20.032c-2.226 0-4.139-.8-5.74-2.402-1.601-1.6-2.401-3.514-2.401-5.74V14.542c0-2.226.8-4.14 2.401-5.74 1.601-1.601 3.514-2.402 5.74-2.402h33.913v7.79h-32.273c-1.093 0-1.718.078-1.874.235-.117.117-.176.722-.176 1.815v22.492c0 1.093.059 1.718.176 1.874.156.117.781.176 1.874.176h32.273v7.79h-33.913zm48.571 0V22.683c0-2.226.781-4.12 2.343-5.681 1.601-1.601 3.515-2.402 5.74-2.402h18.86v7.673h-17.22c-1.093 0-1.718.078-1.874.234-.117.117-.176.723-.176 1.816v24.249H264.1zm48.27 0c-2.225 0-4.138-.781-5.74-2.343-1.561-1.601-2.343-3.514-2.343-5.74V27.72h26.826v-3.397c0-1.093-.076-1.698-.234-1.816-.117-.156-.721-.234-1.816-.234h-24.776V14.6h26.416c2.226 0 4.121.8 5.682 2.402 1.601 1.562 2.401 3.455 2.401 5.681v25.889H312.37zm1.64-7.673h17.103v-6.267H311.96v4.217c0 1.093.059 1.718.176 1.874.158.117.782.176 1.874.176zm39.791 7.673V11.554c0-2.225.782-4.119 2.343-5.68 1.602-1.602 3.514-2.402 5.74-2.402h12.827v7.731h-11.187c-1.093 0-1.719.078-1.875.234-.117.118-.175.703-.175 1.758V14.6h13.237v7.673h-13.237v26.299h-7.673zm43.351 0c-2.225 0-4.138-.781-5.74-2.343-1.561-1.601-2.342-3.514-2.342-5.74V4.175h7.672V14.6h13.238v7.673h-13.238V38.85c0 1.093.059 1.718.176 1.874.155.117.782.176 1.874.176h11.188v7.673h-12.828zm34.353 0c-2.226 0-4.141-.781-5.74-2.343-1.564-1.601-2.343-3.514-2.343-5.74V22.683c0-2.226.779-4.12 2.343-5.681 1.599-1.601 3.514-2.402 5.74-2.402h18.332c2.226 0 4.118.8 5.682 2.402 1.599 1.562 2.401 3.455 2.401 5.681v12.769h-26.825v3.397c0 1.093.058 1.718.175 1.874.155.117.779.176 1.875.176h24.775v7.673h-26.415zm-.41-20.032h19.152v-4.217c0-1.093-.079-1.698-.237-1.816-.114-.156-.72-.234-1.813-.234h-15.052c-1.096 0-1.72.078-1.875.234-.117.117-.175.723-.175 1.816v4.217zm41.38 20.032V22.683c0-2.226.782-4.12 2.343-5.681 1.602-1.601 3.514-2.402 5.74-2.402h18.86v7.673h-17.22c-1.092 0-1.719.078-1.874.234-.117.117-.176.723-.176 1.816v24.249h-7.673z" fill="#fff"/>
  <defs>
    <linearGradient id="paint0_linear" x1="291.393" y1="-7.071" x2="291.393" y2="69.072" gradientUnits="userSpaceOnUse">
      <stop stop-color="#17E4E8"/>
      <stop offset="1" stop-color="#26B0F1"/>
    </linearGradient>
  </defs>
</svg>
